HIERARCHY
ROOT hip
{
	OFFSET	0.00  0.00  0.00 
	CHANNELS 6 Xposition Yposition Zposition Xrotation Zrotation Yrotation
	JOINT abdomen
	{
		OFFSET	0.000000 0.000000 0.000000
		CHANNELS 3 Xrotation Zrotation Yrotation
		JOINT chest
		{
			OFFSET	0.000000 5.018152 -1.882228
			CHANNELS 3 Xrotation Zrotation Yrotation
			JOINT neckDummy
			{
				OFFSET	0.000000 8.316447 0.784897
				CHANNELS 3 Xrotation Yrotation Zrotation
				JOINT neck
				{
					OFFSET	0.000000 2.280413 -0.392801
					CHANNELS 3 Xrotation Zrotation Yrotation
					JOINT head
					{
						OFFSET	0.000000 3.496879 0.529469
						CHANNELS 3 Xrotation Zrotation Yrotation
						JOINT figureHair
						{
							OFFSET	0.000000 4.699570 0.720622
							CHANNELS 3 Zrotation Yrotation Xrotation
							End Site
							{
								OFFSET 0.000000 -6.419331 0.000000
							}
						}
					}
				}
			}
			JOINT lCollar
			{
				OFFSET	0.599237 8.316447 0.784897
				CHANNELS 3 Yrotation Zrotation Xrotation
				JOINT lShldr
				{
					OFFSET	6.421198 0.010146 -0.332128
					CHANNELS 3 Zrotation Yrotation Xrotation
					JOINT lForeArm
					{
						OFFSET	10.552783 0.025574 0.125508
						CHANNELS 3 Yrotation Zrotation Xrotation
						JOINT lHand
						{
							OFFSET	11.035963 0.319619 0.041520
							CHANNELS 3 Zrotation Yrotation Xrotation
							End Site
							{
								OFFSET 10.353753 0.000000 0.000000
							}
						}
					}
				}
			}
			JOINT rCollar
			{
				OFFSET	-0.599237 8.316447 0.784897
				CHANNELS 3 Yrotation Zrotation Xrotation
				JOINT rShldr
				{
					OFFSET	-6.421198 0.010146 -0.332128
					CHANNELS 3 Zrotation Yrotation Xrotation
					JOINT rForeArm
					{
						OFFSET	-10.552783 0.025574 0.125508
						CHANNELS 3 Yrotation Zrotation Xrotation
						JOINT rHand
						{
							OFFSET	-11.035963 0.319619 0.041520
							CHANNELS 3 Zrotation Yrotation Xrotation
							End Site
							{
								OFFSET -10.353753 0.000000 0.000000
							}
						}
					}
				}
			}
		}
	}
	JOINT lThigh
	{
		OFFSET	4.500466 -6.400484 -1.832696
		CHANNELS 3 Xrotation Zrotation Yrotation
		JOINT lShin
		{
			OFFSET	-1.359117 -18.918689 1.179887
			CHANNELS 3 Xrotation Zrotation Yrotation
			JOINT lFoot
			{
				OFFSET	-0.652380 -17.215186 -0.312137
				CHANNELS 3 Xrotation Yrotation Zrotation
				End Site
				{
					OFFSET 0.000000 0.000000 10.353752
				}
			}
		}
	}
	JOINT rThigh
	{
		OFFSET	-4.500466 -6.400484 -1.832696
		CHANNELS 3 Xrotation Zrotation Yrotation
		JOINT rShin
		{
			OFFSET	1.359117 -18.918689 1.179887
			CHANNELS 3 Xrotation Zrotation Yrotation
			JOINT rFoot
			{
				OFFSET	0.652380 -17.215186 -0.312137
				CHANNELS 3 Xrotation Yrotation Zrotation
				End Site
				{
					OFFSET 0.000000 0.000000 10.353752
				}
			}
		}
	}
}
MOTION
Frames:     17
Frame Time: 0.066667
0.994552 40.989651 0.562035 -1.728760 -9.547900 -0.326709 -0.115528 -6.886040 -2.575950 14.005100 11.193800 2.547370 0.000000 0.000000 0.000000 -0.460901 -9.764480 6.476710 23.900700 4.997470 -19.077499 0.000000 0.000000 0.000000 3.540560 -7.187660 -0.014568 -51.770901 8.976350 18.700899 -95.791496 9.545630 26.519600 5.969490 -0.173112 31.175699 -2.021920 5.690310 -0.063351 62.294601 29.584999 15.823300 23.580400 20.566601 -0.210362 2.261370 0.879272 0.282967 -15.093266 14.305773 -2.017740 36.724964 -4.098417 -2.950286 -20.437069 1.163581 -0.220074 -2.715594 7.001796 0.329137 10.149717 3.038865 -8.898087 -5.472914 -20.362209 -0.347394 
0.994470 40.989681 0.562007 -1.736754 -9.468904 -0.326968 -0.101790 -6.909320 -2.585269 12.928265 11.092313 2.325855 0.000000 0.000000 0.000000 -1.071068 -9.664231 6.570251 17.887459 5.631772 -18.912573 0.000000 0.000000 0.000000 3.529380 -7.192988 -0.015636 -51.807438 8.958941 18.693842 -95.049026 9.566601 26.371906 5.873374 -0.117398 31.179512 -2.087421 5.602446 -0.061777 62.287025 29.564114 15.816505 23.578348 20.577761 -0.180383 2.241399 0.846831 0.222069 -15.059731 14.211758 -1.994940 36.683521 -4.097829 -2.945636 -20.417078 1.169249 -0.206040 -2.782205 6.904408 0.319022 10.311188 3.049777 -8.882788 -5.550965 -20.360380 -0.327786 
0.994263 40.989761 0.561938 -1.743212 -9.378478 -0.327279 -0.069291 -6.964392 -2.607315 11.549729 10.962392 2.042277 0.000000 0.000000 0.000000 -1.851825 -9.535946 6.689933 10.189726 6.443903 -18.701380 0.000000 0.000000 0.000000 3.500410 -7.206792 -0.018402 -51.850960 8.940320 18.685474 -94.098289 9.593318 26.182789 5.639200 0.018343 31.188795 -2.164567 5.498961 -0.059922 62.269253 29.515137 15.800570 23.574642 20.597916 -0.126237 2.194565 0.770750 0.079253 -15.024369 14.104378 -1.968650 36.635746 -4.097171 -2.940262 -20.393431 1.175550 -0.190164 -2.861974 6.793165 0.306822 10.496479 3.062407 -8.865292 -5.640179 -20.358303 -0.305625 
0.993915 40.989891 0.561821 -1.746566 -9.286067 -0.327615 -0.019524 -7.048725 -2.641073 10.158326 10.831258 1.756053 0.000000 0.000000 0.000000 -2.640092 -9.406433 6.810772 2.419985 7.263545 -18.488251 0.000000 0.000000 0.000000 3.450343 -7.230649 -0.023181 -51.897442 8.922829 18.676584 -93.138817 9.620361 25.991930 5.265552 0.234932 31.203609 -2.246093 5.389601 -0.057963 62.242458 29.441278 15.776538 23.571592 20.614513 -0.081653 2.123933 0.656011 -0.136131 -14.991879 13.994925 -1.941550 36.586517 -4.096517 -2.934708 -20.368345 1.181766 -0.174167 -2.947741 6.679760 0.293605 10.686395 3.075484 -8.847432 -5.731196 -20.356199 -0.283319 
0.993441 40.990067 0.561662 -1.747169 -9.191785 -0.327975 0.040495 -7.150431 -2.681786 9.023959 10.724349 1.522703 0.000000 0.000000 0.000000 -3.283835 -9.300694 6.909492 -3.915204 7.931423 -18.314665 0.000000 0.000000 0.000000 3.380156 -7.264093 -0.029882 -51.946556 8.906274 18.667234 -92.357346 9.642798 25.836460 4.789180 0.511066 31.222506 -2.331703 5.274763 -0.055905 62.210899 29.354229 15.748217 23.572435 20.609947 -0.093928 2.040679 0.520769 -0.390004 -14.961902 13.883506 -1.913701 36.535950 -4.095865 -2.928988 -20.341959 1.187914 -0.158043 -3.038933 6.564301 0.279469 10.880647 3.088972 -8.829229 -5.823925 -20.354074 -0.260859 
0.992858 40.990288 0.561465 -1.745375 -9.095741 -0.328354 0.103751 -7.257623 -2.724694 8.416530 10.667100 1.397750 0.000000 0.000000 0.000000 -3.631020 -9.243730 6.962810 -7.309270 8.288260 -18.222099 0.000000 0.000000 0.000000 3.290826 -7.306658 -0.038410 -51.997940 8.890454 18.657476 -91.940598 9.655690 25.753500 4.246833 0.825444 31.244019 -2.421099 5.154846 -0.053757 62.178799 29.265667 15.719404 23.580400 20.566601 -0.210362 1.955979 0.383178 -0.648286 -14.934072 13.770217 -1.885159 36.484142 -4.095216 -2.923114 -20.314398 1.194012 -0.141787 -3.134981 6.446894 0.264512 11.078941 3.102838 -8.810701 -5.918271 -20.351927 -0.238234 
0.992179 40.990540 0.561237 -1.741536 -8.998044 -0.328752 0.163229 -7.358411 -2.765040 8.416530 10.667100 1.397750 0.000000 0.000000 0.000000 -3.631020 -9.243730 6.962810 -7.309270 8.288260 -18.222099 0.000000 0.000000 0.000000 3.183330 -7.357880 -0.048673 -52.051258 8.875175 18.647369 -91.940598 9.655690 25.753500 3.675260 1.156762 31.266685 -2.513987 5.030246 -0.051524 62.150372 29.187271 15.693899 23.597195 20.475237 -0.455791 1.881009 0.261392 -0.876897 -14.908023 13.655153 -1.855982 36.431187 -4.094565 -2.917100 -20.285786 1.200074 -0.125392 -3.235311 6.327641 0.248833 11.280984 3.117045 -8.791864 -6.014140 -20.349747 -0.215432 
0.991421 40.990826 0.560982 -1.736006 -8.898805 -0.329164 0.211912 -7.440907 -2.798063 8.493984 10.674400 1.413683 0.000000 0.000000 0.000000 -3.564123 -9.254138 6.951843 -6.860791 8.250039 -18.230417 0.000000 0.000000 0.000000 3.058646 -7.417294 -0.060577 -52.106174 8.860237 18.636974 -91.978180 9.646042 25.761440 3.111211 1.483719 31.289055 -2.610069 4.901361 -0.049215 62.129879 29.130741 15.675509 23.618380 20.360065 -0.765202 1.826945 0.173568 -1.041759 -14.883389 13.538417 -1.826229 36.377182 -4.093911 -2.910959 -20.256254 1.206120 -0.108853 -3.339353 6.206648 0.232531 11.486484 3.131560 -8.772738 -6.111439 -20.347536 -0.192442 
0.990598 40.991135 0.560705 -1.729138 -8.798136 -0.329590 0.242786 -7.493227 -2.819006 8.518306 10.676691 1.418686 0.000000 0.000000 0.000000 -3.513162 -9.261568 6.942881 -6.699185 8.247673 -18.228413 0.000000 0.000000 0.000000 2.917749 -7.484433 -0.074028 -52.162350 8.845447 18.626352 -91.969383 9.632415 25.760443 2.591437 1.785012 31.309666 -2.709049 4.768588 -0.046836 62.121548 29.107758 15.668034 23.637957 20.253643 -1.051120 1.804963 0.137859 -1.108791 -14.859813 13.420111 -1.795958 36.322235 -4.093255 -2.904706 -20.225941 1.212165 -0.092164 -3.446536 6.084023 0.215705 11.695151 3.146348 -8.753341 -6.210074 -20.345301 -0.169255 
0.989727 40.991463 0.560412 -1.721286 -8.696151 -0.330026 0.248835 -7.503478 -2.823110 8.506109 10.675542 1.416177 0.000000 0.000000 0.000000 -3.486253 -9.265131 6.937708 -6.743839 8.265737 -18.221329 0.000000 0.000000 0.000000 2.761616 -7.558834 -0.088935 -52.219444 8.830606 18.615564 -91.937706 9.620687 25.754826 2.152686 2.039339 31.327070 -2.810632 4.632325 -0.044394 62.129608 29.130001 15.675270 23.649933 20.188526 -1.226070 1.826238 0.172420 -1.043914 -14.836931 13.300336 -1.765227 36.266457 -4.092594 -2.898353 -20.194977 1.218228 -0.075320 -3.556288 5.959873 0.198451 11.906698 3.161376 -8.733696 -6.309956 -20.343044 -0.145859 
0.988823 40.991802 0.560109 -1.712804 -8.592963 -0.330471 0.223044 -7.459774 -2.805615 8.474007 10.672517 1.409573 0.000000 0.000000 0.000000 -3.491515 -9.263938 6.938113 -6.914145 8.288806 -18.214415 0.000000 0.000000 0.000000 2.591225 -7.640031 -0.105202 -52.277103 8.815516 18.604666 -91.906677 9.616737 25.748917 1.831709 2.225398 31.339802 -2.914521 4.492970 -0.041897 62.158306 29.209162 15.701024 23.648325 20.197273 -1.202577 1.901947 0.295406 -0.813049 -14.814384 13.179194 -1.734095 36.209957 -4.091929 -2.891915 -20.163498 1.224325 -0.058314 -3.668040 5.834305 0.180870 12.120834 3.176609 -8.713823 -6.410991 -20.340769 -0.122244 
0.987902 40.992146 0.559799 -1.704045 -8.488686 -0.330921 0.158397 -7.350224 -2.761763 8.438608 10.669181 1.402292 0.000000 0.000000 0.000000 -3.537064 -9.257099 6.945885 -7.129492 8.301455 -18.212921 0.000000 0.000000 0.000000 2.407552 -7.727558 -0.122737 -52.335007 8.799982 18.593721 -91.899803 9.626446 25.747036 1.665254 2.321885 31.346399 -3.020420 4.350920 -0.039352 62.211891 29.356934 15.749102 23.627144 20.312443 -0.893166 2.043266 0.524971 -0.382115 -14.791812 13.056789 -1.702620 36.152843 -4.091259 -2.885406 -20.131634 1.230475 -0.041142 -3.781220 5.707425 0.163060 12.337270 3.192013 -8.693743 -6.513086 -20.338476 -0.098398 
0.986978 40.992493 0.559488 -1.695363 -8.383427 -0.331375 0.047878 -7.162942 -2.686794 8.416530 10.667100 1.397750 0.000000 0.000000 0.000000 -3.631020 -9.243730 6.962810 -7.309270 8.288260 -18.222099 0.000000 0.000000 0.000000 2.211574 -7.820950 -0.141448 -52.392792 8.783805 18.582787 -91.940598 9.655690 25.753500 1.690072 2.307499 31.345407 -3.128032 4.206572 -0.036766 62.294601 29.584999 15.823300 23.580400 20.566601 -0.210362 2.261370 0.879272 0.282967 -14.768847 12.933219 -1.670861 36.095207 -4.090580 -2.878838 -20.099512 1.236693 -0.023797 -3.895256 5.579337 0.145119 12.555712 3.207554 -8.673471 -6.616149 -20.336159 -0.074311 
0.986069 40.992832 0.559182 -1.687111 -8.277299 -0.331829 -0.115528 -6.886040 -2.575950 8.416530 10.667100 1.397750 0.000000 0.000000 0.000000 -3.631020 -9.243730 6.962810 -7.309270 8.288260 -18.222099 0.000000 0.000000 0.000000 2.004268 -7.919740 -0.161240 -52.450115 8.766788 18.571920 -91.940598 9.655690 25.753500 1.942912 2.160937 31.335375 -3.237061 4.060323 -0.034145 62.402695 29.883020 15.920259 23.508720 20.956345 0.836698 2.546368 1.342238 1.152032 -14.745129 12.808585 -1.638876 36.037163 -4.089894 -2.872226 -20.067266 1.242997 -0.006274 -4.009576 5.450150 0.127146 12.775870 3.223197 -8.653030 -6.720087 -20.333818 -0.049973 
0.985188 40.993164 0.558886 -1.679641 -8.170414 -0.332282 -0.335914 -6.512584 -2.426455 8.421041 10.667527 1.398678 0.000000 0.000000 0.000000 -2.966221 -9.335799 6.840352 -6.820845 8.499512 -18.119730 0.000000 0.000000 0.000000 1.786611 -8.023466 -0.182020 -52.506630 8.748731 18.561178 -91.490883 9.422201 25.677496 2.460524 1.860898 31.314844 -3.347210 3.912570 -0.031498 62.500446 30.152531 16.007942 23.439182 21.334425 1.852427 2.804097 1.760907 1.937945 -14.720294 12.682987 -1.606723 35.978809 -4.089198 -2.865583 -20.035030 1.249404 0.011433 -4.123611 5.319967 0.109239 12.997455 3.238908 -8.632439 -6.824807 -20.331455 -0.025373 
0.984351 40.993477 0.558605 -1.673309 -8.062883 -0.332731 -0.605683 -6.055441 -2.243461 8.425003 10.667903 1.399494 0.000000 0.000000 0.000000 -1.609050 -9.521971 6.590084 -5.831589 8.939154 -17.904957 0.000000 0.000000 0.000000 1.559579 -8.131660 -0.203695 -52.562004 8.729438 18.550619 -90.579796 8.948988 25.523964 3.279659 1.386078 31.282360 -3.458184 3.763712 -0.028830 62.544151 30.273031 16.047148 23.405487 21.517633 2.344625 2.919327 1.948093 2.289325 -14.693981 12.556526 -1.574460 35.920250 -4.088490 -2.858923 -20.002932 1.255931 0.029329 -4.236789 5.188896 0.091497 13.220173 3.254653 -8.611714 -6.930214 -20.329067 -0.000499 
0.983574 40.993771 0.558344 -1.668467 -7.954820 -0.333174 -0.914318 -5.532438 -2.034103 8.428442 10.668231 1.400201 0.000000 0.000000 0.000000 0.294634 -9.779911 6.238661 -4.419052 9.565481 -17.594805 0.000000 0.000000 0.000000 1.324150 -8.243855 -0.226172 -52.615898 8.708714 18.540306 -89.322922 8.292982 25.313154 4.437064 0.715175 31.236462 -3.569685 3.614144 -0.026150 62.490105 30.124020 15.998669 23.441330 21.322762 1.821095 2.776829 1.716610 1.854792 -14.665829 12.429304 -1.542145 35.861588 -4.087771 -2.852258 -19.971106 1.262595 0.047421 -4.348537 5.057043 0.074018 13.443736 3.270396 -8.590878 -7.036218 -20.326658 0.024659 
